<?xml version="1.0" standalone="no"?>
<!DOCTYPE svg PUBLIC "-//W3C//DTD SVG 20010904//EN"
 "http://www.w3.org/TR/2001/REC-SVG-20010904/DTD/svg10.dtd">
<svg version="1.0" xmlns="http://www.w3.org/2000/svg"
 width="1024.000000pt" height="1024.000000pt" viewBox="0 0 1024.000000 1024.000000"
 preserveAspectRatio="xMidYMid meet">

<g transform="translate(0.000000,1024.000000) scale(0.100000,-0.100000)"
fill="#000000" stroke="none">
<path d="M4955 9285 c-192 -31 -353 -91 -504 -189 -80 -51 -219 -181 -281
-261 l-40 -52 -63 -2 c-113 -2 -203 -69 -239 -178 l-14 -41 -39 45 c-56 65
-85 77 -199 83 -67 3 -101 9 -104 18 -3 9 18 12 80 12 105 0 133 13 133 60 0
31 -4 36 -30 41 -50 11 -200 10 -233 -2 -28 -9 -41 -7 -104 23 -88 40 -171 44
-257 13 -180 -66 -264 -288 -170 -453 21 -37 26 -54 17 -56 -7 -2 -40 -9 -73
-16 -157 -30 -258 -77 -366 -171 -31 -27 -60 -45 -64 -41 -5 4 -5 2 -1 -5 3
-7 -11 -35 -34 -65 -22 -29 -53 -83 -68 -121 -16 -37 -30 -65 -33 -63 -2 2 -5
-19 -7 -47 -1 -29 -6 -65 -10 -82 -8 -29 -11 -30 -72 -33 -93 -4 -128 -44 -80
-92 16 -16 33 -20 85 -20 58 0 65 -2 66 -20 1 -11 2 -28 3 -37 1 -16 -12 -19
-99 -25 -121 -8 -191 -32 -268 -92 -59 -46 -122 -115 -140 -153 -5 -12 -14
-20 -20 -16 -6 3 -7 2 -4 -4 3 -5 -3 -33 -14 -62 -11 -29 -22 -79 -26 -112 -6
-58 -6 -59 -42 -65 -70 -12 -104 -29 -166 -86 -34 -32 -66 -54 -70 -50 -3 4
-6 2 -5 -3 5 -21 0 -36 -10 -30 -6 4 -9 3 -8 -2 1 -4 -9 -35 -22 -68 -20 -51
-24 -77 -24 -170 0 -98 3 -116 27 -169 l27 -59 -35 -43 c-77 -93 -113 -211
-96 -314 11 -66 20 -90 71 -191 21 -42 36 -80 32 -85 -4 -4 -2 -4 4 -1 29 17
34 -47 34 -449 l0 -405 -173 2 c-191 3 -235 -7 -281 -62 -13 -15 -26 -26 -28
-23 -6 6 -10 -21 -12 -91 -1 -33 -8 -87 -15 -120 -15 -68 -9 -164 15 -220 8
-20 12 -41 8 -47 -4 -7 -3 -8 4 -4 7 4 12 3 12 -2 0 -18 90 -110 137 -140 67
-42 143 -62 236 -62 44 0 78 -3 74 -6 -9 -9 45 -52 76 -59 26 -7 34 3 28 38 0
4 191 7 427 7 l427 0 24 -83 c14 -45 26 -88 29 -94 3 -10 -16 -13 -74 -12 -58
1 -71 3 -49 9 20 5 -2 8 -65 7 -69 0 -84 -2 -55 -7 45 -8 -440 -2 -522 6 -28
3 -68 14 -89 25 -44 22 -132 26 -185 8 -45 -16 -112 -66 -137 -105 -32 -48
-55 -140 -50 -195 8 -80 50 -152 116 -196 l57 -38 130 -5 130 -5 7 -85 c8
-107 11 -123 22 -132 6 -4 4 -14 -5 -25 -12 -16 -12 -17 2 -6 13 10 22 5 55
-35 21 -26 38 -50 37 -54 -2 -4 4 -5 12 -2 8 4 15 2 15 -3 0 -6 18 -15 39 -22
l39 -11 4 -143 c3 -143 3 -143 42 -221 87 -177 248 -276 448 -276 43 0 78 -2
78 -5 0 -3 -9 -34 -21 -68 -26 -77 -21 -148 15 -213 14 -26 23 -51 19 -57 -3
-5 -1 -7 5 -3 6 3 17 0 24 -8 44 -44 78 -51 268 -56 178 -5 185 -6 182 -25 -2
-11 -9 -23 -15 -27 -7 -4 -9 -8 -4 -8 4 0 0 -16 -8 -36 -8 -20 -15 -54 -15
-75 0 -22 -5 -39 -10 -39 -7 0 -7 -6 0 -19 5 -11 10 -34 10 -51 0 -88 108
-224 210 -264 59 -24 151 -24 220 -1 30 11 59 18 63 17 5 -1 6 1 3 6 -2 4 8
16 24 27 27 18 45 53 34 65 -3 3 -36 3 -72 1 -181 -11 -214 -8 -262 24 -65 43
-103 121 -97 195 10 112 70 186 165 200 26 4 168 7 316 6 l270 -2 11 -52 c7
-29 9 -53 6 -53 -3 -1 -34 0 -69 1 -86 3 -128 -33 -86 -74 12 -12 36 -16 100
-16 82 0 85 -1 94 -26 6 -14 10 -29 10 -34 0 -5 -37 -10 -82 -12 l-83 -3 -3
-31 c-3 -29 0 -32 34 -37 21 -4 63 -4 94 0 42 4 60 2 69 -8 6 -8 39 -63 72
-124 66 -118 159 -252 208 -299 17 -17 31 -33 31 -38 0 -4 -38 -8 -84 -8 -64
0 -88 -4 -100 -16 -20 -19 -20 -54 -2 -79 13 -18 29 -20 152 -22 l137 -2 51
-34 c261 -175 484 -255 761 -272 119 -7 286 6 399 32 37 8 73 16 80 18 6 1 20
6 31 10 11 4 49 18 85 32 36 13 87 35 113 48 26 14 53 22 60 19 7 -4 9 -4 5 1
-4 4 27 29 68 54 160 97 136 89 286 93 81 1 134 6 130 12 -3 5 1 7 9 4 10 -4
15 5 17 33 4 54 -22 69 -120 69 -43 0 -78 2 -78 5 0 3 24 34 54 69 94 112 209
295 236 379 9 30 9 41 0 52 -26 31 -45 16 -84 -62 -184 -374 -563 -655 -981
-727 -117 -21 -325 -20 -446 0 -239 41 -494 164 -680 330 -63 56 -130 131
-101 113 12 -8 22 -16 22 -19 0 -3 12 -7 26 -8 15 -1 33 -7 40 -13 10 -9 18
-8 28 0 10 8 16 9 21 1 3 -5 11 -10 16 -10 6 0 7 5 3 12 -10 15 5 6 101 -65
101 -75 181 -115 331 -166 523 -178 1085 -4 1412 437 73 99 122 192 165 317
56 163 71 268 64 468 -6 176 -18 249 -60 372 -21 62 -23 73 -10 92 13 19 12
23 -7 41 -15 14 -18 22 -10 27 12 7 24 0 26 -16 1 -5 2 -13 3 -19 0 -5 5 -10
11 -10 12 0 8 25 -10 63 -13 27 -15 28 -28 10 -14 -17 -14 -17 -8 0 3 10 6 23
6 28 0 20 17 7 33 -26 9 -19 17 -37 17 -40 0 -3 8 -13 18 -24 9 -10 29 -34 45
-54 17 -23 41 -40 65 -46 46 -13 1340 -15 1395 -2 21 5 62 27 91 50 60 47 99
52 140 20 60 -47 69 -117 24 -174 -44 -56 -29 -55 -777 -55 l-691 0 -16 -25
c-21 -33 -11 -73 22 -85 15 -6 231 -10 533 -10 507 0 508 0 536 -22 32 -25 64
-91 65 -131 0 -37 -22 -79 -60 -111 l-32 -26 -584 0 c-585 0 -615 -2 -636 -34
-12 -18 -9 -63 5 -73 7 -6 150 -13 342 -17 290 -6 335 -9 372 -26 114 -50 142
-235 50 -332 -68 -72 -87 -76 -342 -63 -182 9 -208 3 -203 -43 3 -27 4 -27 88
-30 94 -2 133 -9 126 -20 -2 -4 3 -8 12 -9 9 0 42 -10 72 -21 72 -27 152 -21
228 15 32 15 61 26 65 25 5 -1 6 1 4 5 -3 5 10 19 28 33 17 13 37 34 43 45 57
106 57 108 57 210 0 72 -5 110 -16 135 -28 58 -29 69 -11 74 9 3 89 4 177 3
150 -2 163 0 198 21 21 12 43 19 49 16 6 -4 8 -2 5 3 -4 6 3 19 15 29 11 11
31 42 44 69 28 59 32 156 9 220 -8 22 -15 41 -15 43 0 1 35 2 78 2 44 0 101 7
127 15 27 8 53 11 58 8 6 -3 7 -1 3 5 -3 5 10 20 29 32 19 12 42 34 52 50 9
16 20 27 25 24 4 -3 8 -2 9 3 6 83 12 120 21 130 6 7 31 13 57 13 64 1 86 16
86 61 1 41 5 39 -97 45 -73 5 -80 8 -115 42 -20 20 -36 42 -34 47 1 6 0 7 -4
3 -4 -4 -24 2 -43 13 -20 10 -46 20 -57 21 -11 1 41 4 115 7 111 5 143 10 179
28 24 12 49 19 55 16 6 -3 8 -3 4 2 -8 9 92 121 104 117 4 -1 5 5 2 13 -4 8
-1 15 5 15 6 0 11 9 11 19 0 11 4 23 10 26 17 11 51 98 68 176 9 42 22 78 27
79 6 1 20 6 32 11 12 4 69 9 127 10 91 1 112 5 151 26 25 13 51 21 57 17 6 -4
8 -3 5 3 -4 6 5 24 21 40 49 53 72 113 72 187 0 37 -7 83 -15 102 -8 20 -12
41 -8 47 3 5 1 7 -4 4 -15 -9 -36 19 -27 35 4 7 4 10 -1 6 -4 -4 -26 8 -49 26
-51 41 -91 54 -181 60 -38 2 -74 5 -78 5 -11 1 159 140 192 158 14 7 45 13 68
13 103 0 209 73 258 177 22 46 25 65 23 136 -2 64 -6 82 -18 84 -8 1 -36 5
-62 8 -35 5 -57 15 -83 40 -35 32 -36 33 -47 11 -10 -19 -10 -20 5 -7 15 11
17 11 17 -2 0 -19 -16 -30 -50 -33 -14 -1 -19 0 -13 3 22 8 15 35 -7 28 -11
-3 -28 -1 -37 5 -15 8 -13 9 10 4 16 -4 27 -2 27 5 0 6 6 8 13 5 8 -3 20 2 27
11 11 13 7 21 -26 55 -29 29 -41 36 -51 28 -9 -7 -13 -7 -13 1 0 9 -31 10
-112 6 -187 -10 -203 -9 -186 12 6 8 21 10 37 7 17 -4 22 -3 13 4 -16 11 100
22 240 22 122 0 158 -16 220 -97 41 -54 47 -58 83 -57 55 2 85 39 85 104 0 74
-29 121 -95 153 -52 26 -59 27 -234 27 l-181 0 1 428 c0 441 -1 482 -13 482
-5 0 -8 7 -8 15 0 8 24 26 54 40 30 14 72 45 94 69 22 24 44 41 48 38 4 -4 4
-2 0 5 -3 6 2 31 11 55 35 86 15 219 -45 297 -15 20 -26 39 -24 43 1 5 -4 7
-11 5 -6 -1 -11 4 -10 10 2 7 0 12 -5 10 -20 -6 -13 13 19 53 20 25 39 58 43
73 4 15 10 26 14 23 4 -2 6 42 5 97 -2 136 -4 148 -14 141 -8 -5 -13 9 -6 21
1 2 -7 10 -17 18 -10 8 -16 19 -12 25 5 8 2 10 -8 6 -11 -4 -16 0 -16 11 0 10
-5 13 -12 9 -8 -5 -9 -2 -5 10 4 11 3 15 -4 11 -6 -4 -18 -1 -27 7 -40 34 -85
43 -209 40 l-123 -2 0 74 c0 108 -25 220 -67 308 -21 43 -42 78 -46 78 -5 0
-5 5 -2 10 4 6 3 9 -2 8 -4 -1 -28 16 -53 40 -25 23 -50 42 -56 42 -6 0 -17 6
-23 14 -16 19 -115 45 -181 47 -30 1 -58 4 -63 6 -13 7 13 43 31 43 53 0 74
68 32 100 -18 14 -37 16 -91 12 -68 -5 -69 -4 -80 24 -7 16 -12 32 -11 36 1 4
-24 33 -56 65 l-57 59 23 48 c47 97 39 196 -23 296 -27 44 -31 58 -22 70 6 8
1 6 -12 -5 -14 -11 -21 -14 -17 -7 4 7 2 12 -4 12 -7 0 -24 8 -38 18 -48 33
-105 42 -263 42 -103 0 -149 4 -139 10 8 5 11 10 6 10 -5 0 -3 8 6 18 29 35
41 79 44 160 2 73 -1 90 -23 132 -60 116 -166 183 -293 184 -62 1 -85 -4 -135
-27 -64 -30 -123 -81 -156 -134 l-21 -33 -103 0 c-95 0 -107 -2 -160 -30 -66
-35 -65 -34 -65 -16 0 7 -9 25 -20 38 -10 14 -16 29 -12 33 4 5 2 5 -4 2 -7
-4 -18 1 -25 10 -21 25 -101 73 -122 73 -17 0 -16 3 6 30 14 16 29 40 32 51 5
16 9 18 15 9 15 -24 -3 85 -18 115 -9 17 -15 35 -13 40 1 6 0 7 -4 3 -4 -3
-25 2 -47 12 -67 30 -120 16 -210 -52 l-36 -28 -54 46 c-71 61 -214 149 -307
189 -194 83 -446 113 -656 80z m440 -144 c240 -63 430 -187 587 -380 110 -137
178 -292 223 -514 5 -26 8 -27 43 -21 97 17 186 88 217 173 9 25 19 53 22 61
4 10 8 4 13 -16 12 -53 54 -126 89 -155 35 -28 109 -59 143 -59 33 0 19 -17
-24 -29 -55 -16 -116 -55 -147 -93 -25 -31 -61 -125 -61 -162 0 -12 -11 9 -23
45 -32 95 -70 144 -131 173 -28 14 -70 28 -93 31 l-43 7 0 -117 c0 -432 -245
-828 -622 -1005 -323 -151 -722 -128 -1023 61 -315 197 -515 575 -515 973 l0
88 -37 -6 c-21 -4 -63 -19 -93 -34 -43 -22 -62 -39 -86 -80 -17 -28 -35 -71
-39 -94 l-7 -43 -13 47 c-29 106 -97 182 -190 209 -53 16 -57 25 -12 33 87 16
189 126 204 221 l7 40 12 -45 c34 -130 95 -190 220 -218 l42 -9 10 66 c34 204
146 412 309 576 150 151 337 247 568 291 104 20 347 12 450 -15z m-2211 -403
c-5 -8 -2 -9 11 -4 38 14 152 -48 142 -78 -2 -5 12 -24 30 -42 18 -18 33 -42
33 -53 0 -30 -27 -91 -40 -91 -6 0 -9 -4 -6 -9 10 -16 -72 -78 -121 -92 -84
-23 -194 24 -233 101 -56 111 13 246 139 271 53 10 53 10 45 -3z m3939 -4 c68
-9 137 -98 134 -173 -1 -23 -3 -38 -5 -31 -3 9 -7 9 -13 -1 -6 -10 -9 -7 -9
11 0 20 -2 22 -10 10 -6 -10 -8 -2 -4 25 4 27 3 36 -4 26 -14 -20 -34 -3 -27
22 5 18 4 19 -4 6 -7 -10 -7 -28 -2 -47 5 -17 8 -32 6 -34 -1 -2 -5 -16 -9
-33 -7 -29 -7 -29 9 -10 9 11 14 14 10 7 -8 -16 13 -44 27 -36 6 4 5 -3 -1
-15 -13 -24 -17 -25 -27 -9 -4 7 -3 8 4 4 7 -4 12 -3 12 3 0 18 -24 26 -76 23
-38 -2 -54 1 -66 15 -41 45 -26 114 26 123 16 3 31 12 33 20 3 10 2 11 -4 3
-5 -6 -21 -10 -35 -9 -15 2 -25 -1 -22 -5 3 -5 1 -9 -5 -9 -5 0 -12 6 -15 13
-3 6 -3 1 0 -12 4 -16 3 -21 -5 -17 -6 4 -11 0 -11 -9 0 -24 -24 -12 -28 14
-3 17 -7 20 -17 11 -9 -8 -14 -7 -18 5 -4 8 -3 14 1 13 11 -4 72 26 72 34 0 5
7 8 15 8 8 0 15 5 15 10 0 6 -11 10 -24 10 -40 0 -57 10 -43 24 6 7 19 11 28
9 9 -3 20 0 24 7 4 6 14 8 24 5 9 -4 28 -9 44 -11z m-167 -85 c1 -13 9 -41 18
-61 17 -39 9 -83 -17 -100 -25 -16 -76 -8 -91 14 -32 45 -6 128 40 128 9 0 22
7 30 15 9 8 11 15 5 15 -6 0 -11 5 -11 11 0 22 25 1 26 -22z m-3316 -64 c7 -8
10 -25 6 -40 -7 -28 -48 -55 -54 -36 -2 6 -8 8 -13 5 -13 -8 -39 15 -39 34 0
43 73 70 100 37z m4034 -389 c52 -39 76 -82 76 -136 0 -57 -26 -101 -81 -137
l-43 -28 -279 0 c-212 0 -281 3 -284 12 -3 7 -21 15 -41 19 -20 4 -42 11 -49
16 -7 5 -22 7 -33 3 -23 -7 -64 21 -54 37 3 4 0 7 -7 6 -7 -2 -15 6 -17 17 -4
17 -2 18 12 6 13 -11 16 -11 17 0 0 8 4 5 9 -6 5 -11 9 -14 9 -7 1 18 19 15
25 -5 2 -10 2 5 -1 32 -3 28 -7 53 -10 58 -2 4 -22 7 -44 7 -25 0 -39 5 -39
13 1 18 48 68 68 72 9 1 16 8 15 13 -2 6 4 9 12 6 9 -4 15 0 15 9 0 9 8 18 18
20 9 3 164 4 343 4 l326 -2 37 -29z m-4537 -28 c228 -95 342 -281 331 -543 -4
-96 -9 -118 -35 -175 -34 -73 -129 -172 -199 -208 -59 -30 -193 -45 -368 -41
l-152 4 -76 38 c-231 114 -324 406 -207 653 53 113 125 185 246 249 89 46 136
55 273 51 107 -2 134 -6 187 -28z m3583 -208 c9 -16 6 -25 -14 -45 -42 -42
-70 -30 -75 33 -1 15 -3 15 -11 2 -5 -8 -10 -10 -10 -4 0 13 28 39 50 46 20 7
47 -8 60 -32z m-3037 10 c13 -11 40 -56 58 -100 19 -44 37 -80 40 -80 3 0 15
28 28 63 33 96 55 127 90 127 27 0 29 -2 35 -57 4 -32 15 -90 25 -130 l18 -71
-28 -6 c-18 -3 -34 -15 -41 -30 -16 -36 4 -56 57 -56 l42 0 39 -87 c21 -47 40
-90 42 -93 1 -4 -11 -10 -27 -13 -41 -9 -59 -42 -35 -68 13 -14 31 -19 73 -20
54 0 57 -1 88 -45 l33 -44 -296 0 c-173 0 -303 4 -314 10 -10 5 -22 22 -27 37
-5 16 -8 169 -7 342 2 290 4 316 20 328 25 19 57 16 87 -7z m3357 -66 c0 -2
-11 -4 -25 -4 -14 0 -25 4 -25 9 0 4 11 6 25 3 14 -2 25 -6 25 -8z m514 -195
c55 -15 93 -46 117 -96 45 -94 16 -218 -64 -271 l-41 -27 -743 -3 -743 -2 44
67 c63 98 85 145 148 316 l10 27 617 0 c413 0 629 -4 655 -11z m699 -332 c23
-14 55 -39 71 -56 l30 -31 -31 0 c-50 0 -63 -9 -63 -45 l0 -32 67 -6 c73 -7
80 -11 85 -47 3 -25 2 -25 -60 -21 -71 4 -92 -7 -92 -49 0 -35 13 -40 101 -40
l69 0 0 -70 0 -69 -92 -3 -93 -3 -3 -28 c-2 -17 4 -37 14 -48 16 -18 34 -19
228 -20 283 -1 309 -5 358 -57 21 -23 38 -46 38 -52 0 -6 -62 -10 -179 -10
-196 0 -191 1 -191 -61 0 -16 -5 -29 -12 -29 -9 0 -8 -4 2 -10 8 -5 97 -10
198 -10 100 0 182 -3 182 -7 0 -20 -43 -75 -72 -93 -31 -19 -51 -20 -382 -20
-337 0 -350 1 -390 21 -23 12 -56 39 -75 60 l-33 39 246 0 c226 0 269 5 236
25 -5 3 -10 17 -10 30 0 13 5 27 10 30 27 17 -1 23 -127 27 -124 4 -144 7
-198 32 -33 15 -71 37 -83 49 -46 42 -82 133 -96 240 l-5 37 78 0 c82 0 101 9
101 47 0 32 -33 43 -131 43 l-80 0 3 33 3 32 103 3 102 3 0 27 c0 42 -17 52
-92 52 -37 0 -68 4 -68 8 0 8 37 44 73 72 59 44 190 48 260 7z m-5962 -156
c46 -16 92 -32 102 -36 14 -6 3 -15 -51 -41 -111 -54 -179 -142 -202 -262 -9
-47 -3 -111 16 -186 l7 -29 -53 29 c-227 123 -202 436 42 532 29 11 53 21 54
21 0 1 38 -12 85 -28z m719 -148 c-1 -5 -40 -33 -88 -63 -145 -92 -323 -281
-427 -455 -10 -17 -13 -17 -56 2 -94 42 -150 125 -157 233 -5 89 11 143 61
197 70 76 74 77 327 84 124 3 251 6 283 7 31 1 57 -1 57 -5z m4400 -15 c0 -10
2 -10 8 -1 6 10 23 10 72 2 59 -9 224 -5 275 7 16 4 17 3 5 -5 -12 -9 -11 -11
7 -11 21 0 21 -2 22 -190 0 -131 -3 -189 -10 -184 -6 3 -8 12 -5 19 2 7 1 26
-4 42 l-8 28 -1 -27 c-1 -24 -7 -21 -80 53 -44 43 -82 79 -86 79 -6 0 -39 29
-106 92 -10 9 -29 24 -44 34 -14 9 -24 23 -21 30 3 8 0 11 -8 8 -7 -3 -21 4
-31 16 -16 18 -16 20 -2 20 10 0 17 -6 17 -12z m-2918 -161 c68 -63 242 -227
388 -365 145 -139 270 -252 277 -252 7 0 17 8 22 18 6 9 11 13 11 8 0 -5 11 4
24 19 22 26 27 27 43 14 16 -13 17 -12 5 2 -11 14 -3 26 56 86 37 38 73 68 80
65 8 -2 10 2 5 14 -5 13 -3 16 10 11 9 -3 19 -1 23 5 4 7 3 8 -4 4 -20 -12
-13 3 11 28 12 12 28 21 35 18 8 -2 10 2 5 14 -5 14 -3 16 11 11 10 -4 15 -3
11 4 -8 12 112 132 124 125 9 -6 26 10 33 29 1 6 7 9 11 7 5 -1 6 2 3 7 -8 12
22 43 34 36 5 -3 12 0 16 6 5 8 3 9 -6 4 -8 -5 -11 -3 -8 6 3 8 12 13 21 13 9
-1 14 2 11 8 -7 11 33 48 52 48 7 0 16 5 20 12 5 7 3 8 -7 3 -12 -8 -12 -6 0
8 7 9 18 14 24 10 5 -3 7 -1 4 4 -4 6 9 25 28 42 28 24 41 29 64 25 16 -4 32
-1 35 5 8 13 86 15 86 2 0 -4 25 -9 56 -10 30 0 53 3 50 7 -3 5 102 7 232 4
262 -4 242 -4 295 4 50 8 170 -11 266 -43 402 -131 677 -426 763 -818 10 -47
13 -259 13 -995 -1 -865 -2 -941 -19 -1020 -57 -266 -169 -448 -384 -621 -124
-100 -244 -158 -419 -205 -96 -25 -109 -26 -543 -34 -368 -7 -448 -6 -465 5
-21 14 -265 246 -585 553 l-180 174 -207 -204 c-115 -113 -284 -277 -377 -366
l-170 -162 -110 -1 c-710 -7 -814 0 -992 62 -385 134 -660 454 -729 847 -22
129 -22 1830 0 1949 75 393 368 714 765 837 127 40 178 43 637 45 l422 1 123
-113z m-2798 -72 c11 -59 65 -110 131 -125 26 -6 27 -8 10 -14 -68 -24 -105
-51 -125 -90 -11 -23 -20 -55 -20 -70 0 -40 -16 -23 -24 24 -9 58 -58 109
-121 125 l-50 13 43 11 c60 17 110 64 124 117 15 53 24 56 32 9z m3956 -79 c0
-3 -4 -8 -10 -11 -5 -3 -10 -1 -10 4 0 6 5 11 10 11 6 0 10 -2 10 -4z m-3410
-493 c12 -53 31 -121 41 -151 14 -40 19 -83 19 -156 l0 -101 -46 0 c-57 0 -89
-31 -74 -71 24 -63 -4 -109 -98 -163 l-53 -31 -210 0 c-229 0 -245 3 -291 58
-27 33 -28 33 -98 225 -56 154 -61 197 -29 282 24 65 86 151 131 183 32 22 37
22 359 22 l327 0 22 -97z m6584 22 c40 -26 74 -86 81 -140 9 -71 -23 -131 -85
-163 -41 -20 -58 -22 -180 -21 -127 1 -135 0 -152 -21 -22 -27 -23 -66 -3
-113 20 -49 20 -169 -1 -208 -23 -46 -66 -59 -198 -59 -115 0 -115 0 -151 31
-56 49 -61 65 -31 100 31 37 31 36 6 77 -21 34 -50 41 -70 17 -14 -17 -32 -97
-20 -90 4 3 12 -18 17 -45 6 -27 7 -48 4 -45 -11 6 -8 -40 3 -47 6 -4 7 -10 3
-14 -8 -8 -28 14 -55 61 -14 25 -17 64 -20 226 -3 132 0 204 7 218 9 15 8 25
-1 40 -27 44 36 147 109 177 24 10 110 14 350 15 175 0 327 5 338 9 11 5 21 9
23 9 1 1 13 -6 26 -14z m-6539 -565 c-3 -5 -10 -10 -16 -10 -5 0 -9 5 -9 10 0
6 7 10 16 10 8 0 12 -4 9 -10z m6383 -66 c4 -37 -23 -67 -39 -43 -10 17 -12
63 -2 73 16 16 38 -1 41 -30z m-6368 -40 c0 -8 -4 -14 -10 -14 -5 0 -10 9 -10
21 0 11 5 17 10 14 6 -3 10 -13 10 -21z m5768 -54 c7 -11 11 -23 10 -27 -2 -3
13 -12 32 -19 19 -7 29 -13 22 -13 -24 -2 -83 29 -77 39 4 6 1 17 -5 25 -7 8
-8 15 -4 15 5 0 15 -9 22 -20z m-5865 -168 l97 -4 0 -249 0 -249 -389 0 -388
0 -7 31 c-12 63 -7 358 8 392 18 43 49 69 94 78 38 7 415 8 585 1z m6407 -13
c39 -8 56 -18 78 -47 26 -34 27 -41 30 -178 3 -125 1 -147 -16 -187 -29 -64
-63 -80 -166 -76 l-81 4 -5 -350 c-4 -273 -8 -357 -19 -380 -8 -16 -15 -41
-15 -53 -1 -33 -61 -88 -114 -107 -57 -19 -296 -22 -290 -3 2 6 20 17 39 24
l34 12 -30 2 c-29 2 -28 2 13 17 46 16 67 43 57 73 -6 18 -16 20 -81 20 l-74
0 0 40 0 40 53 0 c61 0 112 27 127 66 6 14 10 145 10 299 0 235 -2 276 -16
289 -8 9 -24 16 -33 16 -42 0 -46 -21 -51 -298 l-5 -265 -28 -10 c-59 -19 -57
-28 -57 333 l0 330 169 0 c94 0 172 4 175 8 3 5 2 18 -1 30 -5 22 -6 22 -174
16 l-169 -7 0 41 0 42 170 0 c149 0 171 2 177 16 13 36 -23 44 -189 44 l-158
0 0 35 0 35 175 0 175 0 0 30 0 30 -175 0 c-160 0 -175 2 -176 18 -1 9 -2 24
-3 32 0 8 6 18 14 22 25 11 574 9 630 -3z m-6310 -879 l0 -271 -522 6 c-590 7
-594 8 -673 77 -115 101 -128 260 -30 376 35 42 76 63 140 72 27 4 283 8 568
9 l517 1 0 -270z m6697 124 c-3 -3 -12 -4 -19 -1 -8 3 -5 6 6 6 11 1 17 -2 13
-5z m-227 -24 c8 -5 11 -10 5 -10 -5 0 -17 5 -25 10 -8 5 -10 10 -5 10 6 0 17
-5 25 -10z m-10 -32 c13 -14 20 -35 20 -60 0 -31 -5 -40 -27 -51 -16 -8 -38
-13 -50 -11 -13 2 -23 -1 -23 -6 0 -6 0 -13 0 -17 0 -5 8 -8 18 -9 37 -2 42
-5 42 -19 0 -19 -41 -36 -56 -24 -7 6 -11 2 -11 -9 0 -19 14 -32 36 -32 7 0
11 6 8 14 -4 10 5 14 35 14 23 1 44 5 47 10 3 4 14 11 24 15 10 4 16 10 14 14
-11 18 13 53 35 53 28 -1 65 -26 47 -32 -7 -2 11 -4 39 -4 29 0 48 2 43 6 -18
11 -7 38 15 36 17 -1 20 -4 13 -18 -6 -11 -5 -19 3 -24 6 -4 8 -3 4 4 -3 6 -2
13 4 17 9 6 12 2 14 -27 1 -9 -14 -13 -44 -13 -35 0 -45 -4 -48 -17 -2 -11 3
-18 12 -18 9 0 16 -4 16 -8 0 -18 42 -10 47 9 3 10 9 19 13 19 14 0 46 74 48
113 2 26 -2 39 -13 43 -20 8 -19 30 1 38 23 9 76 -38 61 -53 -6 -6 -7 -11 -1
-11 13 0 1 -118 -17 -155 -22 -48 -68 -85 -105 -85 -12 0 -27 -7 -34 -15 -14
-17 -66 -19 -222 -8 l-98 6 0 45 c0 36 -3 43 -16 38 -8 -3 -12 -2 -9 4 12 19
14 50 3 50 -7 0 -6 6 2 15 7 8 9 15 4 15 -4 0 -3 5 4 12 16 16 15 33 0 20 -10
-8 -14 1 -16 41 -2 40 2 55 20 74 27 29 71 30 98 1z m230 -6 c21 -21 27 -35
23 -55 -3 -17 -1 -27 6 -27 7 0 9 5 5 12 -4 7 -3 8 5 4 15 -10 3 -29 -14 -22
-14 5 -39 -17 -30 -25 2 -3 -14 -4 -37 -3 -49 2 -84 37 -91 89 -3 26 -4 25 -6
-10 -3 -36 -4 -37 -11 -15 -7 23 -8 23 -10 -10 -1 -19 -4 -27 -7 -17 -5 20
-19 22 -26 5 -3 -7 -6 2 -6 20 -1 17 4 32 9 32 6 0 10 8 11 18 0 11 2 12 6 4
4 -10 8 -10 19 -1 7 6 19 9 26 7 7 -3 24 1 38 9 38 19 59 16 90 -15z m-200 -2
c0 -5 -2 -10 -4 -10 -3 0 -8 5 -11 10 -3 6 -1 10 4 10 6 0 11 -4 11 -10z m-30
-125 c-7 -8 -20 -15 -29 -15 -11 0 -8 5 9 14 33 19 35 19 20 1z m205 -5 c3 -5
1 -10 -4 -10 -6 0 -11 5 -11 10 0 6 2 10 4 10 3 0 8 -4 11 -10z m-170 -10 c3
-6 -1 -7 -9 -4 -18 7 -21 14 -7 14 6 0 13 -4 16 -10z m78 -584 c126 -53 118
-238 -13 -277 -22 -7 -147 -9 -340 -7 -338 3 -345 5 -392 70 -33 47 -32 127 3
164 55 59 72 61 422 63 223 1 295 -2 320 -13z m-7358 -13 c34 -14 93 -17 391
-18 193 -1 357 -5 363 -10 7 -4 49 -6 94 -4 l81 4 24 -42 23 -43 -278 0 -278
-1 -40 -27 c-66 -45 -75 -75 -75 -240 0 -79 4 -152 10 -162 15 -28 65 -40 166
-40 52 0 94 -3 94 -8 0 -4 -11 -24 -25 -44 -24 -35 -25 -45 -26 -173 0 -160
14 -217 69 -272 76 -77 24 -73 892 -73 879 0 814 -6 882 85 21 28 68 103 104
168 l67 117 53 0 c30 0 54 -2 54 -5 0 -3 -20 -32 -45 -66 -24 -33 -61 -88 -82
-122 -20 -34 -69 -94 -108 -133 -39 -39 -80 -88 -91 -108 -10 -21 -23 -45 -28
-55 -8 -15 -70 -16 -790 -16 -715 0 -785 2 -824 18 -38 14 -114 67 -98 67 3 0
-11 21 -31 48 -20 26 -50 76 -66 112 -29 62 -31 73 -35 225 -2 88 -9 166 -14
173 -6 7 -34 12 -70 12 -65 0 -111 18 -130 53 -8 13 -15 75 -18 157 l-5 135
-177 5 c-171 5 -177 6 -203 30 -38 36 -55 73 -55 122 0 114 110 178 225 131z
m6438 -181 c-2 -7 2 -11 9 -9 18 4 56 -61 63 -108 14 -89 -58 -183 -155 -204
-59 -13 -179 -14 -198 -3 -9 6 -3 19 21 48 18 21 41 50 50 64 9 13 17 20 17
14 0 -5 -7 -19 -15 -30 -8 -12 -12 -24 -9 -27 10 -9 32 17 27 30 -3 7 7 17 21
23 27 10 33 24 16 35 -6 3 -7 -1 -4 -9 3 -9 1 -16 -4 -16 -16 0 -24 18 -12 25
5 3 10 15 10 26 0 11 12 31 26 46 21 21 32 24 61 20 32 -6 34 -5 17 8 -11 7
-15 17 -10 22 5 4 11 2 13 -4 8 -23 20 -13 15 12 -2 13 -2 32 2 41 7 18 42 14
39 -4z m-5374 -61 c18 -25 19 -30 5 -35 -9 -3 -126 -6 -260 -6 l-244 0 0 -100
0 -100 -80 0 -80 0 0 109 c0 94 3 112 21 135 l20 26 299 0 299 0 20 -29z m179
-195 c124 -118 307 -228 468 -282 131 -44 216 -55 460 -62 l232 -7 -44 -75
c-64 -109 -117 -167 -164 -180 -26 -7 -266 -10 -727 -8 -749 3 -729 2 -759 59
-11 22 -14 87 -14 319 l0 290 246 0 245 0 57 -54z m5482 -26 c6 -21 22 -53 37
-70 27 -33 91 -70 120 -70 10 0 -11 -15 -47 -33 -77 -38 -97 -64 -108 -137
l-9 -55 -12 45 c-25 88 -78 143 -155 160 -27 6 -28 8 -11 14 92 32 147 85 161
154 4 17 8 32 10 32 2 0 8 -18 14 -40z m-2940 -15 c174 -26 297 -75 439 -175
249 -176 422 -460 461 -755 13 -95 12 -295 -1 -375 -41 -260 -198 -518 -414
-680 -157 -118 -398 -221 -480 -206 -18 4 -25 3 -17 -3 25 -16 -160 -29 -268
-19 -307 28 -572 166 -758 394 -205 251 -293 616 -226 937 95 458 468 822 910
886 94 14 251 12 354 -4z m2486 -312 c44 -31 67 -93 54 -141 -5 -20 -17 -48
-26 -61 -36 -51 -39 -51 -678 -51 -660 0 -650 -1 -700 65 -14 18 -44 68 -67
111 l-41 79 33 3 c103 9 666 19 1004 18 387 -1 390 -1 421 -23z m-1596 -3 c4
0 24 -32 45 -71 21 -40 32 -69 26 -65 -7 5 -11 -2 -11 -18 0 -14 -4 -26 -10
-26 -5 0 -10 6 -10 13 0 8 -4 7 -10 -3 -8 -12 -10 -10 -10 8 0 13 -4 20 -10
17 -5 -3 -10 0 -10 8 0 8 -9 22 -20 32 -12 10 -18 25 -16 32 3 7 0 12 -6 10
-6 -1 -11 8 -13 20 -1 13 -5 26 -10 30 -4 5 -5 0 -2 -9 9 -25 0 -22 -14 3 -6
12 -7 19 -2 16 4 -2 17 -1 28 4 11 4 26 6 33 3 8 -2 17 -4 22 -4z m47 -212
c-3 -8 -6 -5 -6 6 -1 11 2 17 5 13 3 -3 4 -12 1 -19z m-2384 -433 c4 -18 5
-18 15 5 10 23 11 22 10 -15 0 -22 -4 -53 -9 -70 -7 -26 -8 -24 -4 11 4 32 1
41 -11 41 -11 0 -13 -8 -9 -31 5 -28 4 -29 -8 -14 -13 17 -15 16 -26 -5 -11
-22 -11 -21 -5 3 l6 25 -19 -22 c-15 -17 -23 -19 -31 -11 -17 17 -15 33 3 18
8 -7 15 -9 15 -6 0 12 -28 36 -42 36 -10 0 -10 -2 1 -9 11 -7 9 -11 -8 -21
-13 -6 -30 -9 -39 -5 -9 3 -13 3 -9 -1 4 -4 3 -12 -2 -18 -17 -23 -20 -59 -5
-74 8 -8 13 -21 10 -28 -4 -10 1 -11 20 -4 32 13 37 12 29 0 -3 -5 2 -10 12
-11 16 0 16 -1 -2 -9 -11 -5 -15 -9 -10 -10 6 -1 -1 -6 -15 -10 -24 -8 -24 -8
7 -9 17 -1 34 -4 36 -8 3 -5 -52 -8 -121 -7 -116 1 -120 0 -42 -6 49 -4 -68
-7 -281 -8 -293 -2 -369 1 -377 11 -13 15 1 82 18 92 13 8 13 82 1 89 -15 9
-1 42 28 70 l28 27 381 -3 c210 -2 382 0 382 5 0 4 9 7 20 7 11 0 20 -4 20
-10 0 -5 -7 -10 -15 -10 -8 0 -15 -7 -15 -15 0 -8 6 -15 14 -15 21 0 39 28 32
47 -5 12 -4 14 2 8 6 -5 12 -19 15 -30z m-1159 -67 c61 -56 20 -158 -64 -158
-84 0 -119 115 -51 167 27 21 87 16 115 -9z m1133 -40 c-3 -8 -6 -5 -6 6 -1
11 2 17 5 13 3 -3 4 -12 1 -19z m-37 -55 c-11 -17 -11 -17 -6 0 3 10 7 28 7
40 2 22 2 22 6 0 2 -12 -1 -30 -7 -40z"/>
<path d="M4995 9061 c-235 -38 -445 -151 -594 -321 -168 -190 -243 -394 -243
-660 -1 -212 54 -401 165 -573 50 -78 192 -220 277 -277 169 -114 414 -173
623 -150 179 20 310 67 458 165 512 340 582 1115 139 1544 -128 124 -275 207
-448 252 -86 23 -292 33 -377 20z m332 -137 c195 -43 409 -194 523 -368 45
-69 92 -183 117 -284 25 -102 22 -314 -6 -417 -132 -494 -624 -764 -1111 -609
-117 37 -194 87 -305 199 -148 148 -225 299 -256 498 -14 91 -6 280 17 367 85
330 389 593 727 630 88 9 210 3 294 -16z"/>
<path d="M4748 8049 c2 -497 4 -570 17 -565 8 3 67 13 130 23 l116 17 -3 238
c-2 131 -1 238 2 238 3 0 16 -28 29 -62 43 -113 164 -403 173 -414 4 -6 45
-14 91 -18 45 -3 108 -12 139 -20 52 -12 57 -12 61 5 3 10 2 268 -1 573 l-5
556 -124 0 -123 0 0 -262 c0 -191 -3 -259 -11 -251 -9 9 -137 314 -197 471
l-16 42 -141 0 -140 0 3 -571z"/>
<path d="M3053 8690 c-13 -5 -23 -14 -23 -20 0 -18 35 -11 48 10 13 22 9 23
-25 10z"/>
<path d="M3096 8671 c-7 -11 28 -21 44 -11 8 5 7 9 -5 14 -23 8 -33 8 -39 -3z"/>
<path d="M3071 8623 c-18 -19 -11 -22 17 -8 16 9 19 14 10 17 -7 3 -19 -1 -27
-9z"/>
<path d="M3124 8629 c-3 -5 1 -9 10 -9 8 0 23 -3 33 -6 15 -6 16 -4 6 6 -16
17 -41 21 -49 9z"/>
<path d="M3187 8623 c3 -7 9 -10 14 -7 14 8 11 21 -5 21 -8 0 -12 -6 -9 -14z"/>
<path d="M3256 8605 c-9 -26 -7 -32 5 -12 6 10 9 21 6 23 -2 3 -7 -2 -11 -11z"/>
<path d="M3192 8543 c-3 -32 -27 -61 -55 -65 -11 -2 -22 -8 -24 -15 -5 -15 36
-5 58 13 9 8 19 11 24 7 4 -5 5 -3 1 4 -3 6 -1 23 6 38 7 16 8 29 2 35 -6 6
-10 0 -12 -17z"/>
<path d="M3250 8545 c-4 -30 1 -49 13 -57 20 -13 32 -9 15 5 -9 6 -19 26 -21
42 -3 19 -5 23 -7 10z"/>
<path d="M3212 8500 c0 -14 2 -19 5 -12 2 6 2 18 0 25 -3 6 -5 1 -5 -13z"/>
<path d="M7151 8710 c-1 -17 17 -40 31 -40 4 0 8 5 8 10 0 6 -6 10 -14 10 -8
0 -17 8 -19 18 -4 13 -5 13 -6 2z"/>
<path d="M7134 8665 c26 -20 42 -19 22 0 -8 8 -21 15 -28 15 -8 -1 -6 -6 6
-15z"/>
<path d="M7008 8617 c4 -14 7 -16 13 -5 12 19 11 25 -5 25 -8 0 -11 -8 -8 -20z"/>
<path d="M7095 8086 c-24 -17 -15 -50 14 -54 39 -6 56 39 22 57 -13 7 -23 6
-36 -3z"/>
<path d="M7309 8079 c-16 -16 -18 -23 -8 -35 15 -19 55 -18 63 2 7 17 -10 54
-24 54 -6 0 -19 -9 -31 -21z"/>
<path d="M7517 8070 c-7 -26 16 -55 37 -47 23 9 31 34 16 52 -18 21 -47 19
-53 -5z"/>
<path d="M2807 7986 c-3 -8 -38 -31 -76 -51 -70 -37 -75 -43 -83 -100 -2 -14
-15 -22 -46 -28 -36 -7 -42 -12 -42 -33 0 -13 9 -32 20 -41 28 -24 28 -93 0
-118 -13 -12 -20 -29 -18 -44 3 -23 8 -26 45 -29 44 -3 46 -5 55 -67 3 -17 20
-28 156 -101 15 -8 42 13 42 32 0 21 23 17 38 -6 14 -24 44 -26 75 -6 12 8 47
28 77 43 47 25 55 33 58 61 3 29 7 33 42 38 57 9 67 26 41 68 -24 39 -26 102
-3 125 7 7 12 28 10 45 -3 27 -7 31 -35 34 -37 4 -53 20 -56 58 -2 23 -16 35
-91 77 l-89 51 -23 -30 -24 -29 -26 33 c-28 35 -39 39 -47 18z m121 -106 c12
0 13 -3 5 -8 -8 -5 6 -16 37 -30 27 -12 59 -36 70 -52 12 -17 18 -30 15 -30
-4 0 1 -7 9 -16 9 -8 16 -23 15 -32 0 -14 -2 -13 -8 3 -6 15 -9 7 -13 -30 -11
-112 -69 -170 -172 -170 -34 0 -77 4 -96 8 -33 7 -34 6 -16 -8 11 -8 15 -15 9
-15 -16 0 -59 44 -77 78 -18 35 -34 136 -18 114 9 -13 20 29 25 95 1 12 6 25
10 29 4 5 5 0 2 -11 -6 -19 -6 -19 9 -1 19 24 147 86 164 80 8 -2 21 -4 30 -4z
m-91 -386 c-3 -3 -12 -4 -19 -1 -8 3 -5 6 6 6 11 1 17 -2 13 -5z"/>
<path d="M3307 7886 c-3 -7 1 -37 10 -66 19 -64 14 -258 -8 -305 -31 -69 -137
-185 -169 -185 -12 0 -13 -10 -1 -29 21 -33 170 89 213 174 58 112 63 296 12
398 -15 29 -48 36 -57 13z"/>
<path d="M3812 7608 c-7 -7 -12 -36 -12 -65 0 -34 -7 -68 -20 -93 -39 -76 -21
-130 48 -149 23 -7 37 -5 61 10 l31 19 0 119 c0 151 -7 171 -58 171 -21 0 -43
-5 -50 -12z m70 -185 c26 -23 24 -78 -4 -97 -32 -22 -64 -20 -82 6 -22 31 -20
64 4 88 24 24 57 26 82 3z"/>
<path d="M7442 7600 c-25 -10 -52 -65 -52 -103 0 -64 103 -106 138 -56 7 11
18 16 24 13 15 -10 28 16 28 58 0 69 -73 115 -138 88z m62 -25 c10 -8 23 -12
27 -9 9 5 12 -6 12 -41 0 -57 -21 -76 -76 -73 -39 3 -76 22 -64 34 2 3 11 -2
20 -10 13 -14 15 -12 10 22 -4 28 0 42 17 60 26 28 12 29 -18 2 -25 -23 -28
-19 -10 10 15 23 55 26 82 5z"/>
<path d="M6720 7510 l0 -70 95 0 c60 0 95 4 95 11 0 5 -4 7 -10 4 -6 -4 -10 5
-10 19 0 14 5 26 11 26 6 0 8 9 3 23 -3 12 -3 18 2 14 4 -4 11 -29 15 -55 6
-43 6 -41 8 26 l1 72 -105 0 -105 0 0 -70z m157 34 c-3 -3 -12 -4 -19 -1 -8 3
-5 6 6 6 11 1 17 -2 13 -5z"/>
<path d="M7061 7510 l2 -70 69 0 c60 0 69 2 66 18 -5 28 -21 42 -35 30 -10 -8
-13 -5 -13 11 0 11 3 21 8 21 4 0 17 3 29 6 18 5 22 1 26 -23 l4 -28 3 30 c2
23 5 19 10 -20 l7 -50 1 48 c2 58 17 62 21 5 4 -70 11 -57 11 20 l0 72 -106 0
-105 0 2 -70z m189 34 c0 -2 -7 -4 -15 -4 -8 0 -15 4 -15 10 0 5 7 7 15 4 8
-4 15 -8 15 -10z"/>
<path d="M7535 7440 c-3 -5 -1 -10 4 -10 6 0 11 5 11 10 0 6 -2 10 -4 10 -3 0
-8 -4 -11 -10z"/>
<path d="M7495 7009 c-4 -6 -5 -13 -2 -16 7 -7 27 6 27 18 0 12 -17 12 -25 -2z"/>
<path d="M7546 6939 c10 -11 28 -26 39 -31 14 -8 12 -2 -9 21 -33 34 -61 44
-30 10z"/>
<path d="M7582 6946 c7 -8 15 -12 17 -11 5 6 -10 25 -20 25 -5 0 -4 -6 3 -14z"/>
<path d="M6194 6969 c-24 -8 58 -22 102 -17 23 2 17 5 -27 14 -31 5 -65 7 -75
3z"/>
<path d="M6145 6950 c-3 -5 -2 -10 4 -10 5 0 13 5 16 10 3 6 2 10 -4 10 -5 0
-13 -4 -16 -10z"/>
<path d="M6020 6879 c0 -5 5 -7 10 -4 6 3 10 8 10 11 0 2 -4 4 -10 4 -5 0 -10
-5 -10 -11z"/>
<path d="M6142 6864 c-13 -28 -2 -32 15 -6 10 17 28 19 171 21 130 2 161 -1
164 -12 2 -11 7 -10 22 5 20 18 16 18 -171 18 l-190 -1 -11 -25z"/>
<path d="M6084 6828 c10 -6 22 -6 26 -2 5 5 -3 10 -18 11 -22 1 -24 0 -8 -9z"/>
<path d="M6130 6819 c0 -5 5 -7 10 -4 6 3 10 8 10 11 0 2 -4 4 -10 4 -5 0 -10
-5 -10 -11z"/>
<path d="M6239 6623 c-13 -16 -12 -17 4 -4 9 7 17 15 17 17 0 8 -8 3 -21 -13z"/>
<path d="M6200 6589 c0 -5 5 -7 10 -4 6 3 10 8 10 11 0 2 -4 4 -10 4 -5 0 -10
-5 -10 -11z"/>
<path d="M6102 6494 c-7 -8 -8 -14 -3 -14 10 0 25 19 20 25 -2 1 -10 -3 -17
-11z"/>
<path d="M3178 6483 c7 -3 16 -2 19 1 4 3 -2 6 -13 5 -11 0 -14 -3 -6 -6z"/>
<path d="M3113 6465 c0 -12 3 -12 16 -3 9 7 18 14 20 15 2 2 -5 3 -16 3 -11 0
-20 -7 -20 -15z"/>
<path d="M3239 6465 c18 -8 40 -15 48 -15 8 0 11 -5 7 -12 -5 -8 -2 -9 9 -5
10 3 17 2 17 -4 0 -6 5 -7 12 -3 14 9 -76 54 -106 54 -16 -1 -12 -5 13 -15z"/>
<path d="M3026 6439 c-32 -17 -56 -33 -53 -35 3 -3 16 2 30 10 13 9 30 15 38
13 8 -2 10 -2 5 1 -5 3 6 13 25 23 19 10 30 18 24 18 -5 0 -36 -14 -69 -30z"/>
<path d="M3210 6451 c0 -5 5 -13 10 -16 6 -3 10 -2 10 4 0 5 -4 13 -10 16 -5
3 -10 2 -10 -4z"/>
<path d="M3185 6440 c-3 -5 -1 -10 4 -10 6 0 11 5 11 10 0 6 -2 10 -4 10 -3 0
-8 -4 -11 -10z"/>
<path d="M6026 6413 c-6 -14 -5 -15 5 -6 7 7 10 15 7 18 -3 3 -9 -2 -12 -12z"/>
<path d="M3380 6384 c25 -31 59 -58 65 -52 2 2 -18 21 -43 43 -42 36 -44 37
-22 9z"/>
<path d="M2940 6385 c-7 -9 -8 -15 -2 -15 5 0 12 7 16 15 3 8 4 15 2 15 -2 0
-9 -7 -16 -15z"/>
<path d="M2896 6333 c-6 -14 -5 -15 5 -6 7 7 10 15 7 18 -3 3 -9 -2 -12 -12z"/>
<path d="M3470 6295 c13 -14 26 -23 28 -20 5 5 -36 45 -46 45 -3 0 5 -11 18
-25z"/>
<path d="M3518 6253 c-2 -4 13 -24 34 -44 21 -21 38 -33 38 -29 0 13 -68 82
-72 73z"/>
<path d="M2811 6217 c-13 -21 -12 -21 5 -5 10 10 16 20 13 22 -3 3 -11 -5 -18
-17z"/>
<path d="M5220 6226 c0 -2 7 -7 16 -10 8 -3 12 -2 9 4 -6 10 -25 14 -25 6z"/>
<path d="M2784 6163 c-4 -16 -11 -34 -17 -41 -5 -7 -7 -15 -4 -18 3 -3 10 3
15 13 12 23 24 73 17 73 -2 0 -8 -12 -11 -27z"/>
<path d="M3600 6172 c0 -4 9 -15 20 -25 11 -9 20 -13 20 -9 0 4 -9 15 -20 25
-11 9 -20 13 -20 9z"/>
<path d="M5764 6158 l-19 -23 23 19 c21 18 27 26 19 26 -2 0 -12 -10 -23 -22z"/>
<path d="M3683 6092 c10 -10 14 -22 10 -27 -5 -4 -2 -5 5 -1 11 6 10 12 -4 27
-9 10 -19 19 -22 19 -3 0 2 -8 11 -18z"/>
<path d="M5679 6073 c-13 -16 -12 -17 4 -4 9 7 17 15 17 17 0 8 -8 3 -21 -13z"/>
<path d="M3710 6055 c-11 -13 -10 -14 5 -8 15 5 17 3 11 -13 -5 -14 -4 -16 4
-7 8 7 9 17 3 28 -9 15 -11 15 -23 0z"/>
<path d="M5284 5978 c-51 -50 -92 -94 -89 -96 4 -5 85 68 128 115 11 12 24 20
28 17 5 -3 6 2 3 10 -3 9 2 17 15 21 19 6 30 25 15 25 -3 0 -48 -41 -100 -92z"/>
<path d="M2744 6034 c-4 -14 -3 -29 2 -34 5 -5 9 6 10 26 1 41 -3 43 -12 8z"/>
<path d="M3758 6018 c12 -15 9 -16 -34 -12 -142 13 -288 -54 -366 -169 -13
-20 -28 -34 -32 -30 -4 4 -4 -1 0 -12 4 -11 3 -16 -1 -12 -5 4 -18 -21 -29
-55 -18 -58 -20 -101 -23 -551 -3 -327 0 -506 7 -541 16 -76 60 -164 113 -222
51 -57 158 -113 230 -120 23 -3 47 -6 53 -9 6 -2 28 0 47 5 23 5 40 4 48 -4 9
-8 10 -8 5 2 -5 8 0 12 13 12 24 0 27 -19 9 -40 -7 -8 25 19 72 60 80 70 177
163 610 585 102 100 199 191 215 204 17 12 23 20 14 18 -10 -3 -41 21 -87 67
-58 59 -69 75 -59 86 10 12 9 12 -6 1 -16 -13 -51 20 -370 335 -300 297 -479
466 -429 402z"/>
<path d="M6489 5986 c-19 -7 -45 -19 -57 -27 -36 -26 -842 -828 -842 -839 0
-12 40 -52 336 -335 120 -115 255 -244 299 -286 182 -175 217 -194 356 -194
90 0 99 2 171 38 123 60 197 158 227 297 9 40 12 189 9 540 -3 474 -4 486 -25
539 -54 132 -149 226 -264 262 -70 22 -158 24 -210 5z"/>
<path d="M2741 5964 c0 -11 3 -14 6 -6 3 7 2 16 -1 19 -3 4 -6 -2 -5 -13z"/>
<path d="M2731 5828 c-1 -40 3 -68 9 -68 11 0 11 60 0 105 -6 23 -8 15 -9 -37z"/>
<path d="M5231 5876 c-10 -12 -8 -13 8 -9 12 3 18 9 15 14 -7 12 -10 11 -23
-5z"/>
<path d="M5136 5835 c-22 -19 -34 -35 -27 -35 6 0 25 13 40 29 16 16 32 27 37
23 4 -4 4 -1 0 6 -9 15 -4 17 -50 -23z"/>
<path d="M5379 5783 c-13 -16 -12 -17 4 -4 9 7 17 15 17 17 0 8 -8 3 -21 -13z"/>
<path d="M5071 5777 c-6 -6 -11 -17 -11 -24 0 -7 -6 -13 -12 -13 -7 0 -49 -35
-93 -77 -44 -42 -69 -70 -55 -62 14 7 29 12 33 11 5 -1 5 3 1 9 -5 9 -2 10 10
6 14 -5 17 -3 13 8 -6 15 59 85 79 85 15 0 46 35 37 43 -3 4 -1 8 5 8 26 3 31
4 36 9 3 3 -3 6 -13 7 -10 1 -24 -4 -30 -10z"/>
<path d="M5329 5733 c-13 -16 -12 -17 4 -4 9 7 17 15 17 17 0 8 -8 3 -21 -13z"/>
<path d="M2744 5280 c0 -179 2 -252 3 -162 2 89 2 235 0 325 -1 89 -3 16 -3
-163z"/>
<path d="M4854 5553 c-13 -20 -13 -25 -2 -16 8 7 17 11 19 8 3 -2 5 5 5 15 0
25 0 25 -22 -7z"/>
<path d="M4765 5480 c-16 -16 -25 -33 -22 -37 4 -3 7 -1 7 6 0 7 5 9 10 6 6
-4 9 -1 8 7 -2 7 4 12 12 10 8 -2 12 0 8 4 -4 4 -3 13 3 21 21 25 3 13 -26
-17z"/>
<path d="M5079 5493 c-13 -16 -12 -17 4 -4 9 7 17 15 17 17 0 8 -8 3 -21 -13z"/>
<path d="M4701 5416 c-7 -8 -8 -17 -3 -20 6 -3 13 1 16 10 9 23 2 28 -13 10z"/>
<path d="M4660 5380 c-9 -6 -10 -10 -3 -10 6 0 15 5 18 10 8 12 4 12 -15 0z"/>
<path d="M4616 5332 c-3 -5 1 -9 9 -9 8 0 12 4 9 9 -3 4 -7 8 -9 8 -2 0 -6 -4
-9 -8z"/>
<path d="M4729 5153 c-13 -16 -12 -17 4 -4 16 13 21 21 13 21 -2 0 -10 -8 -17
-17z"/>
<path d="M2733 4640 c0 -153 3 -226 7 -195 5 28 8 115 8 195 0 80 -3 168 -8
195 -4 31 -7 -42 -7 -195z"/>
<path d="M2742 4295 c0 -16 2 -22 5 -12 2 9 2 23 0 30 -3 6 -5 -1 -5 -18z"/>
<path d="M2751 4223 c-1 -12 4 -25 9 -28 12 -7 12 2 0 30 -8 19 -9 19 -9 -2z"/>
<path d="M3759 4223 c-13 -16 -12 -17 4 -4 16 13 21 21 13 21 -2 0 -10 -8 -17
-17z"/>
<path d="M2770 4164 c0 -7 7 -27 15 -45 8 -19 14 -29 15 -23 0 7 -7 27 -15 45
-8 19 -14 29 -15 23z"/>
<path d="M2815 4050 c10 -19 20 -30 22 -23 3 7 -5 23 -17 35 l-22 23 17 -35z"/>
<path d="M2861 3983 c7 -12 15 -20 18 -17 3 2 -3 12 -13 22 -17 16 -18 16 -5
-5z"/>
<path d="M2934 3901 c20 -22 26 -25 26 -13 0 4 -10 13 -22 21 -23 14 -23 14
-4 -8z"/>
<path d="M2977 3869 c7 -7 15 -10 18 -7 3 3 -2 9 -12 12 -14 6 -15 5 -6 -5z"/>
<path d="M1810 6059 c-64 -26 -92 -87 -70 -153 17 -52 53 -76 112 -76 43 0 54
4 79 31 38 41 45 73 28 122 -22 63 -92 99 -149 76z"/>
<path d="M8100 6203 c-41 -15 -90 -90 -84 -128 4 -28 25 -63 40 -69 23 -9 62
11 69 35 8 24 -12 69 -31 69 -7 0 -16 5 -20 12 -4 6 -3 8 4 4 7 -4 10 5 8 26
-2 27 2 35 23 45 26 11 19 16 -9 6z"/>
<path d="M8750 6141 c-19 -36 -12 -70 16 -83 33 -15 57 -1 65 38 10 53 -56 90
-81 45z"/>
<path d="M8256 6115 c-19 -29 -14 -43 18 -55 40 -15 63 32 30 64 -21 22 -29
20 -48 -9z"/>
<path d="M8436 6133 c-11 -12 -6 -51 9 -63 20 -16 47 5 43 33 -3 20 -41 41
-52 30z"/>
<path d="M8598 6118 c-9 -25 4 -58 22 -58 17 0 34 45 23 62 -7 13 -41 9 -45
-4z"/>
<path d="M8043 5937 c-38 -55 -26 -97 27 -97 60 0 79 77 25 102 -13 6 -22 15
-19 19 3 5 2 9 -3 9 -4 0 -18 -15 -30 -33z"/>
<path d="M8232 5758 c-33 -42 -6 -108 43 -108 23 0 65 45 65 69 0 38 -84 68
-108 39z"/>
<path d="M1840 5180 c-39 -39 -11 -110 43 -110 50 0 78 63 46 103 -25 32 -61
35 -89 7z"/>
<path d="M1636 5164 c-33 -32 -7 -94 39 -94 41 0 59 64 27 93 -23 21 -46 22
-66 1z m44 -55 c0 -38 -24 -35 -28 4 -2 19 1 27 12 27 11 0 16 -10 16 -31z"/>
<path d="M2098 5168 c-26 -21 -28 -45 -7 -72 34 -43 79 -29 79 25 0 47 -39 73
-72 47z m49 -53 c1 -5 -2 -17 -7 -25 -8 -13 -11 -13 -26 2 -9 9 -13 21 -9 28
8 13 37 10 42 -5z"/>
<path d="M8472 5177 c-27 -29 -28 -63 -3 -77 62 -32 110 31 61 80 -25 25 -32
25 -58 -3z m46 -35 c3 -19 -1 -23 -15 -20 -10 2 -19 14 -21 26 -3 19 1 23 15
20 10 -2 19 -14 21 -26z"/>
<path d="M8565 5144 c0 -25 4 -43 10 -41 15 5 18 62 3 75 -11 9 -13 2 -13 -34z"/>
<path d="M8265 4879 c-8 -13 -8 -657 0 -670 11 -17 64 -10 75 11 7 13 10 127
10 323 -1 254 -4 308 -16 326 -16 22 -58 29 -69 10z"/>
<path d="M1549 4667 c-69 -46 -99 -121 -80 -194 32 -117 164 -169 262 -104 37
25 46 28 59 17 8 -8 35 -22 60 -33 39 -17 48 -26 58 -62 12 -38 15 -41 48 -41
82 0 183 84 204 170 24 100 -21 176 -140 238 -79 40 -136 42 -198 7 l-43 -25
-47 25 c-62 33 -136 34 -183 2z m145 -88 c20 -16 26 -29 26 -60 0 -95 -119
-121 -156 -34 -19 45 -18 48 12 84 31 38 78 41 118 10z m281 -11 c21 -25 25
-38 21 -62 -8 -41 -35 -65 -77 -72 -29 -5 -40 -1 -67 24 -41 38 -43 79 -6 116
39 39 93 36 129 -6z"/>
<path d="M9120 4464 c0 -8 5 -12 10 -9 6 4 8 11 5 16 -9 14 -15 11 -15 -7z"/>
<path d="M8837 3723 c-14 -13 -7 -74 8 -79 21 -9 65 23 65 46 0 28 -54 53 -73
33z"/>
<path d="M8434 3706 c-10 -26 4 -48 28 -44 17 2 23 10 23 28 0 18 -6 26 -23
28 -13 2 -25 -3 -28 -12z"/>
<path d="M8557 3700 c-6 -23 16 -45 38 -36 22 8 30 36 14 47 -23 15 -46 10
-52 -11z"/>
<path d="M2973 2573 c9 -2 23 -2 30 0 6 3 -1 5 -18 5 -16 0 -22 -2 -12 -5z"/>
<path d="M7910 3504 c0 -14 -4 -33 -9 -43 -7 -12 -6 -18 2 -18 7 0 13 18 15
44 1 24 0 43 -3 43 -3 0 -5 -12 -5 -26z"/>
<path d="M7853 3430 c-13 -5 -23 -12 -23 -15 0 -9 16 -5 36 10 22 16 19 18
-13 5z"/>
<path d="M7738 3333 c18 -2 45 -2 60 0 15 2 0 4 -33 4 -33 0 -45 -2 -27 -4z"/>
<path d="M7708 3313 c7 -3 16 -2 19 1 4 3 -2 6 -13 5 -11 0 -14 -3 -6 -6z"/>
<path d="M2414 3309 c-3 -6 6 -23 20 -38 32 -34 32 -38 -1 -73 -21 -22 -24
-31 -15 -40 9 -9 20 -4 47 22 l36 35 30 -33 c28 -30 49 -35 49 -10 0 5 -12 24
-26 41 l-26 31 32 27 c18 15 29 32 26 38 -11 18 -26 13 -58 -20 l-31 -31 -24
31 c-25 32 -47 39 -59 20z"/>
<path d="M2382 3017 c-24 -26 -28 -57 -10 -75 17 -17 33 -15 19 2 -10 11 -9
21 4 45 15 31 29 39 39 23 6 -11 64 -7 136 8 38 8 119 10 260 6 315 -9 300 -8
300 -25 0 -14 2 -14 11 -1 8 11 12 12 16 3 7 -18 24 -16 17 1 -12 32 -53 36
-413 36 l-358 0 -21 -23z"/>
<path d="M3164 2964 c-10 -8 -13 -13 -6 -9 6 3 12 1 12 -6 0 -16 13 -3 16 16
3 19 2 19 -22 -1z"/>
<path d="M3281 2924 c-22 -49 36 -86 72 -46 32 35 14 72 -33 72 -19 0 -30 -8
-39 -26z"/>
<path d="M3438 2925 c-9 -21 -8 -28 7 -45 23 -25 40 -25 65 0 24 24 25 34 4
54 -24 25 -63 20 -76 -9z"/>
<path d="M2973 2933 c9 -2 25 -2 35 0 9 3 1 5 -18 5 -19 0 -27 -2 -17 -5z"/>
<path d="M3043 2933 c9 -2 23 -2 30 0 6 3 -1 5 -18 5 -16 0 -22 -2 -12 -5z"/>
<path d="M2483 2923 c32 -2 81 -2 110 0 29 2 3 3 -58 3 -60 0 -84 -1 -52 -3z"/>
<path d="M5075 3028 c-40 -14 -84 -56 -101 -95 -41 -96 12 -198 122 -236 l36
-13 -23 -27 -24 -27 -87 45 c-48 24 -112 51 -141 61 -44 14 -53 20 -50 35 3
10 0 42 -7 70 -17 69 -85 142 -150 159 -118 31 -232 -44 -261 -173 -10 -48 -9
-59 15 -131 40 -117 89 -218 162 -333 75 -118 79 -89 -27 -219 -70 -87 -130
-181 -171 -270 -55 -121 -41 -238 34 -284 74 -44 245 -29 436 38 l78 28 27
-72 c32 -84 75 -147 120 -175 45 -28 123 -22 169 13 37 28 88 116 109 186 7
23 15 42 18 42 3 0 54 -16 112 -34 101 -32 194 -51 304 -59 28 -3 44 -2 37 0
-7 3 5 14 27 25 63 31 86 77 87 175 0 49 -4 79 -9 76 -6 -4 -7 6 -3 23 4 20 4
24 -3 15 -7 -11 -17 2 -40 54 -36 79 -121 210 -180 277 -23 25 -41 49 -41 52
0 3 25 42 56 88 65 97 118 204 134 270 11 41 10 52 -6 85 -37 76 -109 88 -290
51 -90 -18 -107 -19 -115 -7 -5 8 -9 17 -9 21 0 12 128 73 205 98 91 29 104
40 81 74 -9 14 -20 26 -25 26 -24 0 -157 -47 -242 -86 -53 -24 -101 -44 -106
-44 -6 0 -13 18 -17 41 -15 96 -78 159 -164 165 -26 2 -60 -1 -77 -8z m75
-104 c10 -25 7 -52 -10 -83 -8 -17 -8 -20 4 -15 10 4 14 -1 13 -14 0 -12 -5
-18 -9 -16 -4 3 -8 1 -8 -4 0 -21 -43 -5 -70 27 -31 35 -37 68 -19 102 22 42
84 44 99 3z m-505 -18 c73 -31 83 -119 19 -175 -63 -56 -148 -34 -174 45 -14
41 -8 71 18 102 36 41 83 50 137 28z m535 -71 c7 -9 8 -15 2 -15 -5 0 -12 7
-16 15 -3 8 -4 15 -2 15 2 0 9 -7 16 -15z m145 -61 c23 -9 45 -57 45 -98 0
-44 -41 -96 -77 -96 -32 0 -78 27 -93 56 -38 71 49 167 125 138z m415 -109 c8
-9 10 -27 6 -48 -6 -31 -107 -216 -145 -266 l-19 -25 -36 32 c-20 17 -69 54
-110 81 -42 28 -81 63 -89 80 -12 25 -12 29 -1 24 9 -3 34 14 61 41 39 40 60
51 127 71 95 28 187 32 206 10z m-799 -60 c78 -40 73 -53 -49 -131 -48 -31
-110 -76 -139 -100 -28 -24 -53 -44 -56 -44 -12 0 -147 225 -147 245 0 3 21 5
48 5 47 0 132 39 161 73 11 14 20 13 80 -8 37 -12 83 -30 102 -40z m293 -189
c42 -31 46 -61 19 -128 -26 -67 -55 -87 -137 -97 -36 -4 -51 -10 -51 -21 0 -8
-4 -18 -10 -22 -5 -4 2 -12 15 -18 25 -10 25 -10 -2 -5 -16 3 -28 3 -28 1 0
-3 12 -12 28 -20 15 -8 23 -15 17 -15 -5 -1 -28 9 -49 22 -48 27 -86 94 -86
150 0 46 29 114 63 144 55 51 161 55 221 9z m276 -176 c-5 -9 -24 -35 -42 -57
-18 -21 -40 -50 -50 -64 -15 -23 -16 -20 -11 71 3 52 1 114 -5 137 l-10 42 64
-56 c51 -45 61 -59 54 -73z m-637 78 c-10 -54 -10 -122 0 -170 4 -21 4 -38 0
-37 -15 1 -113 122 -113 139 0 17 95 109 113 110 5 0 5 -19 0 -42z m-173 -147
c0 -4 18 -29 40 -54 37 -41 39 -46 21 -52 -11 -3 -36 -24 -55 -45 -31 -34 -36
-47 -36 -88 0 -51 25 -103 58 -121 23 -12 88 -15 120 -6 18 6 22 4 22 -16 0
-19 2 -21 10 -9 8 12 10 11 10 -6 0 -33 -19 -43 -151 -80 -158 -44 -247 -47
-285 -8 -29 28 -28 52 2 146 34 104 244 397 244 339z m938 -48 c97 -118 169
-258 178 -351 5 -57 4 -66 -16 -87 -41 -44 -162 -31 -353 37 -66 24 -70 28
-62 61 6 23 10 24 68 20 50 -3 68 0 94 16 74 46 84 149 21 206 -19 16 -42 35
-52 40 -16 9 -14 15 24 58 23 26 45 47 50 47 4 0 26 -21 48 -47z m-512 -131
c57 -3 81 0 119 17 83 37 72 12 -30 -69 -35 -28 -66 -50 -70 -50 -10 0 -133
88 -157 112 -31 31 -20 39 25 15 28 -15 65 -23 113 -25z m-265 9 c29 -29 37
-51 19 -51 -5 0 -12 -17 -16 -37 -8 -46 -17 -53 -70 -53 -41 0 -72 20 -60 39
4 5 2 12 -4 16 -37 23 24 115 75 115 16 0 38 -12 56 -29z m651 0 c-1 -7 2 -10
7 -7 5 4 12 2 15 -3 9 -13 -5 -72 -15 -65 -5 3 -9 -4 -9 -15 0 -22 -27 -41
-59 -41 -28 0 -51 37 -51 82 0 30 5 40 27 51 32 17 89 16 85 -2z m-452 -172
c0 -5 -18 -18 -39 -28 l-39 -20 -6 22 c-3 12 -6 39 -6 60 l0 38 45 -32 c25
-18 45 -36 45 -40z m239 20 c-10 -61 -12 -64 -36 -50 -50 28 -50 28 -8 65 22
19 43 35 46 36 3 0 2 -23 -2 -51z m-95 -120 c74 -35 73 -31 33 -139 -36 -98
-100 -137 -148 -89 -26 26 -68 117 -75 161 -5 31 -2 34 53 65 32 17 61 32 65
32 4 1 37 -13 72 -30z"/>
<path d="M5790 1789 c0 -5 5 -7 10 -4 6 3 10 8 10 11 0 2 -4 4 -10 4 -5 0 -10
-5 -10 -11z"/>
<path d="M4351 2382 c-37 -20 -71 -73 -71 -110 0 -67 64 -118 134 -109 54 7
106 61 106 109 0 45 -34 96 -75 114 -44 18 -53 18 -94 -4z m91 -39 c22 -19 23
-70 3 -97 -33 -44 -115 -9 -115 49 0 49 75 82 112 48z"/>
<path d="M5982 2100 c0 -14 2 -19 5 -12 2 6 2 18 0 25 -3 6 -5 1 -5 -13z"/>
<path d="M5971 2044 c0 -11 3 -14 6 -6 3 7 2 16 -1 19 -3 4 -6 -2 -5 -13z"/>
<path d="M5960 1996 c0 -31 6 -34 13 -6 3 11 1 23 -4 26 -5 3 -9 -6 -9 -20z"/>
<path d="M5956 1763 c-6 -14 -5 -15 5 -6 7 7 10 15 7 18 -3 3 -9 -2 -12 -12z"/>
<path d="M5628 1507 c-26 -24 -84 -62 -129 -85 -59 -31 -74 -42 -55 -42 14 0
26 3 26 8 0 4 28 23 63 42 34 18 82 53 107 77 58 55 49 55 -12 0z"/>
<path d="M5650 1491 c0 -5 -9 -13 -21 -16 -11 -4 -18 -9 -16 -11 7 -7 57 18
57 28 0 4 -4 8 -10 8 -5 0 -10 -4 -10 -9z"/>
<path d="M4737 1445 c3 -8 9 -12 14 -9 12 7 11 11 -5 17 -10 4 -13 1 -9 -8z"/>
<path d="M4768 1423 c7 -3 16 -2 19 1 4 3 -2 6 -13 5 -11 0 -14 -3 -6 -6z"/>
<path d="M4792 1404 c-14 -16 -5 -18 17 -5 7 5 9 11 5 14 -5 3 -15 -1 -22 -9z"/>
<path d="M4820 1390 c-8 -5 -10 -10 -5 -10 6 0 21 -3 35 -7 22 -6 24 -5 11 10
-16 20 -20 20 -41 7z"/>
<path d="M5355 1365 c-22 -8 -53 -14 -70 -15 l-30 -2 30 -13 30 -13 -40 -7
c-22 -4 -48 -9 -57 -12 -26 -6 -22 12 5 26 20 10 18 11 -13 6 -75 -13 -131 -8
-248 22 -34 9 -65 13 -69 10 -3 -4 2 -7 11 -7 12 0 16 -5 13 -14 -4 -10 0 -14
12 -11 10 2 33 0 52 -5 l34 -8 -45 -2 -45 -2 35 -15 c27 -11 42 -12 70 -4 69
21 80 22 92 14 9 -5 -1 -10 -27 -14 -22 -4 21 -6 95 -6 74 0 144 4 155 8 12 5
3 6 -25 4 l-45 -5 35 13 c23 9 30 16 20 19 -17 6 31 29 67 31 11 1 19 5 16 10
-5 9 -8 8 -58 -8z m-338 -61 c-3 -3 -12 -4 -19 -1 -8 3 -5 6 6 6 11 1 17 -2
13 -5z"/>
<path d="M4748 1258 c5 -5 16 -8 23 -6 8 3 3 7 -10 11 -17 4 -21 3 -13 -5z"/>
<path d="M4840 1255 c0 -2 10 -10 23 -16 20 -11 21 -11 8 4 -13 16 -31 23 -31
12z"/>
<path d="M4838 1223 c7 -3 16 -2 19 1 4 3 -2 6 -13 5 -11 0 -14 -3 -6 -6z"/>
<path d="M4978 1173 c6 -2 18 -2 25 0 6 3 1 5 -13 5 -14 0 -19 -2 -12 -5z"/>
<path d="M5030 1170 c-8 -5 -10 -10 -5 -10 6 0 17 5 25 10 8 5 11 10 5 10 -5
0 -17 -5 -25 -10z"/>
<path d="M6545 2970 c-11 -12 -19 -36 -19 -55 0 -49 28 -75 79 -75 44 0 67 16
79 57 8 26 -16 78 -39 87 -34 13 -82 6 -100 -14z"/>
<path d="M6782 2967 c-27 -29 -29 -77 -4 -107 23 -29 93 -32 122 -5 29 26 27
85 -3 113 -32 30 -87 29 -115 -1z"/>
<path d="M7015 2965 c-59 -58 5 -151 85 -124 17 6 35 19 40 29 44 82 -60 161
-125 95z"/>
<path d="M7245 2965 c-59 -58 5 -151 85 -124 17 6 35 19 40 29 44 82 -60 161
-125 95z"/>
<path d="M7489 2975 c-67 -36 -35 -135 43 -135 73 0 105 74 53 125 -27 28 -57
31 -96 10z"/>
<path d="M6205 2900 c-3 -5 -1 -10 4 -10 6 0 11 5 11 10 0 6 -2 10 -4 10 -3 0
-8 -4 -11 -10z"/>
<path d="M3728 2373 c7 -3 16 -2 19 1 4 3 -2 6 -13 5 -11 0 -14 -3 -6 -6z"/>
<path d="M3698 2353 c12 -2 30 -2 40 0 9 3 -1 5 -23 4 -22 0 -30 -2 -17 -4z"/>
<path d="M3321 2302 c-26 -27 -31 -70 -11 -95 11 -14 18 -26 15 -28 -2 -3 14
-3 36 -1 26 3 45 12 58 28 l19 24 0 -25 c0 -16 -5 -22 -12 -18 -6 4 -5 -1 2
-10 8 -9 24 -19 35 -23 22 -7 21 -8 -3 -15 -17 -5 -3 -7 40 -7 47 0 58 2 40 8
-25 8 -25 8 -2 9 13 1 20 5 17 11 -4 6 -11 8 -16 5 -5 -4 -16 0 -24 9 -9 9
-11 17 -5 21 14 8 13 45 -1 45 -12 0 -74 61 -72 70 1 3 -7 7 -18 7 -12 1 -17
-3 -13 -9 5 -7 2 -8 -5 -3 -21 13 -67 11 -80 -3z m169 -116 c0 -3 -4 -8 -10
-11 -5 -3 -10 -1 -10 4 0 6 5 11 10 11 6 0 10 -2 10 -4z"/>
<path d="M3086 2295 c-46 -46 -16 -115 50 -115 18 0 36 5 39 10 4 6 10 8 14 6
4 -3 7 21 7 52 l0 57 -47 3 c-33 2 -52 -2 -63 -13z"/>
<path d="M3611 2264 c0 -11 3 -14 6 -6 3 7 2 16 -1 19 -3 4 -6 -2 -5 -13z"/>
<path d="M3640 2256 c0 -8 -5 -16 -11 -18 -8 -3 -7 -7 2 -15 11 -9 14 -5 16
18 1 16 0 29 -2 29 -3 0 -5 -6 -5 -14z"/>
<path d="M3678 9023 c-65 -71 -27 -163 66 -163 30 0 47 6 60 21 24 29 32 90
15 120 -7 13 -13 26 -12 29 1 3 -24 7 -56 8 -45 2 -60 -1 -73 -15z"/>
<path d="M6435 9015 c-35 -34 -35 -102 0 -135 20 -19 31 -22 67 -17 61 8 79
34 76 109 -1 33 -4 55 -6 49 -2 -7 -11 -6 -25 4 -33 23 -84 19 -112 -10z"/>
<path d="M3968 8990 c-31 -8 -49 -46 -36 -76 8 -17 22 -25 55 -30 52 -8 130 1
149 17 20 16 17 53 -5 73 -19 18 -116 27 -163 16z"/>
<path d="M6549 8823 c-22 -5 -30 -38 -19 -69 12 -29 43 -37 126 -32 50 3 70 9
80 23 20 27 17 63 -5 75 -19 10 -149 12 -182 3z"/>
<path d="M1781 7801 c6 -2 2 -12 -9 -25 -36 -38 -50 -87 -38 -126 24 -80 67
-105 151 -89 56 11 68 19 89 63 25 52 21 100 -11 134 -41 43 -65 52 -132 50
-34 -2 -56 -5 -50 -7z"/>
<path d="M8314 7800 c-30 -12 -60 -58 -66 -100 -7 -45 16 -104 50 -126 32 -21
157 -22 179 -1 4 5 -1 5 -12 1 -15 -6 -13 0 10 29 38 47 41 99 9 146 -13 19
-21 38 -18 43 3 4 -1 5 -9 2 -8 -3 -18 -1 -22 5 -7 13 -91 13 -121 1z"/>
<path d="M1151 5803 c-19 -10 -39 -27 -45 -38 -6 -11 -13 -22 -16 -25 -8 -8
-7 -99 1 -94 10 6 20 -26 12 -38 -4 -7 -1 -8 7 -3 7 4 16 2 20 -5 13 -21 93
-24 132 -6 40 19 58 51 58 101 0 93 -89 150 -169 108z"/>
<path d="M8984 5808 c-35 -11 -74 -70 -74 -110 0 -79 56 -126 134 -113 23 3
49 7 58 8 9 1 15 3 13 6 -3 2 3 13 12 24 24 26 27 125 4 150 -18 21 -75 48
-100 46 -9 -1 -30 -6 -47 -11z"/>
<path d="M1202 5504 c-28 -20 -30 -69 -3 -84 45 -23 91 -1 91 45 0 23 -32 55
-55 55 -6 0 -21 -7 -33 -16z"/>
<path d="M8960 5500 c-36 -36 -16 -90 34 -90 51 0 80 56 47 89 -26 26 -55 27
-81 1z"/>
<path d="M1197 5332 c-14 -16 -17 -41 -17 -171 0 -86 5 -161 10 -172 13 -22
57 -26 84 -6 17 12 18 29 17 173 -2 168 -5 177 -51 189 -18 4 -31 1 -43 -13z"/>
<path d="M8960 5330 c-18 -18 -20 -33 -20 -172 0 -84 4 -158 8 -164 4 -6 17
-16 29 -23 26 -13 68 2 78 28 3 8 6 83 6 164 0 127 -2 152 -17 168 -22 25 -59
24 -84 -1z"/>
<path d="M8621 3364 c0 -11 3 -14 6 -6 3 7 2 16 -1 19 -3 4 -6 -2 -5 -13z"/>
<path d="M1565 2840 c-50 -8 -76 -24 -98 -62 -37 -64 -9 -166 51 -189 29 -11
105 -8 136 6 15 6 17 5 11 -5 -6 -9 -4 -11 4 -6 7 5 10 11 7 14 -3 3 1 13 10
23 9 10 21 36 28 60 11 37 10 47 -6 80 -17 35 -55 70 -88 80 -8 3 -33 2 -55
-1z"/>
<path d="M8586 2838 c2 -3 -4 -9 -15 -13 -34 -10 -64 -74 -57 -121 8 -65 23
-92 58 -110 57 -30 139 -16 177 30 19 23 41 105 30 111 -14 9 -11 27 4 20 6
-4 4 0 -7 9 -10 8 -15 20 -10 27 4 8 3 10 -5 5 -6 -4 -14 -1 -17 7 -3 9 -17
20 -32 26 -31 12 -133 20 -126 9z"/>
<path d="M6456 2485 c-31 -31 -13 -75 31 -75 12 0 27 9 33 20 12 22 5 60 -10
60 -5 0 -15 3 -23 6 -8 3 -22 -2 -31 -11z"/>
<path d="M6462 2278 c-28 -28 -3 -84 34 -76 43 8 44 88 1 88 -13 0 -28 -5 -35
-12z"/>
<path d="M6614 2254 c-7 -27 14 -54 42 -54 19 0 36 27 32 52 -2 18 -10 24 -35
26 -28 3 -33 0 -39 -24z"/>
<path d="M6998 2269 c-17 -9 -14 -44 4 -55 13 -8 38 15 38 36 0 22 -21 31 -42
19z"/>
<path d="M7403 2273 c-19 -7 -16 -53 3 -60 20 -7 45 22 38 42 -7 16 -24 24
-41 18z"/>
<path d="M6844 2255 c-7 -18 12 -45 32 -45 16 0 33 30 27 48 -7 17 -52 15 -59
-3z"/>
<path d="M7119 2261 c-4 -27 -3 -31 5 -30 5 0 12 -5 16 -11 9 -14 43 16 37 34
-5 14 -57 21 -58 7z"/>
<path d="M7257 2264 c-12 -13 -8 -42 8 -48 25 -9 46 5 43 28 -3 21 -37 34 -51
20z"/>
<path d="M7524 2255 c-10 -25 4 -47 28 -43 17 2 24 11 26 31 3 23 0 27 -23 27
-14 0 -28 -7 -31 -15z"/>
<path d="M3133 1880 c-47 -28 -67 -73 -68 -153 l0 -68 49 -24 c61 -30 89 -31
132 -4 53 32 77 81 72 141 -5 45 -11 57 -46 90 -48 44 -88 49 -139 18z"/>
<path d="M3420 1850 c-14 -27 -4 -57 21 -65 46 -15 81 24 59 65 -15 27 -65 27
-80 0z"/>
<path d="M6495 1863 c-56 -3 -73 -8 -87 -24 -22 -26 -22 -33 -2 -53 10 -10 33
-16 65 -16 46 0 49 -2 49 -25 0 -39 48 -85 96 -92 35 -4 46 -1 74 24 25 22 33
39 37 74 5 41 2 50 -27 82 -35 41 -20 38 -205 30z"/>
<path d="M7120 1800 c0 -6 -67 -10 -169 -10 -163 0 -170 -1 -176 -21 -4 -11
-5 -22 -3 -24 1 -2 91 -5 198 -6 l195 -4 0 29 c0 21 -6 31 -22 37 -14 5 -23 5
-23 -1z"/>
<path d="M3419 1693 c-8 -22 -6 -30 9 -45 25 -26 70 -15 78 18 8 32 -11 54
-47 54 -23 0 -32 -6 -40 -27z"/>
<path d="M3493 1550 c-25 -10 -30 -39 -11 -58 8 -8 48 -12 115 -12 66 0 103
-4 103 -11 0 -5 5 -7 10 -4 6 3 19 -14 29 -39 23 -52 51 -72 81 -56 11 6 20
18 20 28 -1 31 -64 136 -90 149 -29 15 -223 17 -257 3z"/>
<path d="M6475 1547 c-11 -8 -36 -47 -55 -87 -33 -68 -34 -72 -16 -85 32 -24
78 6 97 62 8 25 18 35 40 40 36 7 51 25 47 55 -3 20 -10 23 -48 26 -27 2 -53
-3 -65 -11z"/>
<path d="M3528 1391 c-28 -25 -32 -36 -35 -85 -1 -35 2 -56 8 -56 6 0 8 -7 5
-16 -3 -9 -2 -12 5 -9 5 4 17 1 25 -6 16 -13 153 -14 139 -1 -2 3 3 18 11 35
24 45 13 105 -26 140 -41 37 -89 37 -132 -2z"/>
<path d="M6569 1392 c-35 -32 -50 -102 -29 -141 18 -35 73 -54 119 -41 54 14
83 49 85 103 1 25 -2 43 -6 41 -5 -3 -8 1 -8 9 0 18 -71 57 -104 57 -14 0 -40
-13 -57 -28z"/>
<path d="M3830 1281 c-17 -32 -12 -50 20 -66 28 -14 31 -14 50 5 25 25 25 42
2 63 -25 23 -59 21 -72 -2z"/>
<path d="M6325 1277 c-26 -40 6 -83 53 -70 26 6 40 48 25 72 -17 27 -60 26
-78 -2z"/>
</g>
</svg>
